<svg width="64" height="18" viewBox="0 0 64 18" fill="none" xmlns="http://www.w3.org/2000/svg">
<path d="M8.544 0.0239997C3.696 0.0239997 0 3.576 0 8.592C0 13.608 3.696 17.136 8.568 17.136C13.032 17.136 16.08 14.016 16.752 10.608V7.68H7.68V10.248H13.44C12.936 12.624 11.28 14.112 8.688 14.112C5.568 14.112 3.456 12 3.456 8.592C3.456 5.256 5.544 3.12 8.544 3.12C10.32 3.12 11.712 3.864 12.48 5.28H16.344C15.264 1.92 12.288 0.0239997 8.544 0.0239997Z" fill="#001C34"/>
<path d="M19.2379 16.992H22.5979V6.096L27.1099 16.992H29.6539L34.1419 6.096V16.992H37.5019V0.24H33.7099L28.3819 12.696L23.0539 0.24H19.2379V16.992Z" fill="#001C34"/>
<path d="M57.1678 8.568C57.1678 3.552 53.3758 0 48.5998 0C43.8718 0 40.0078 3.552 40.0078 8.568C40.0078 13.608 43.8718 17.16 48.5998 17.16C53.3518 17.16 57.1678 13.608 57.1678 8.568ZM43.4638 8.568C43.4638 5.16 45.5518 3.024 48.5998 3.024C51.6238 3.024 53.7118 5.16 53.7118 8.568C53.7118 11.976 51.6238 14.16 48.5998 14.16C45.5518 14.16 43.4638 11.976 43.4638 8.568Z" fill="#001C34"/>
<path d="M63.1956 15.192C63.1956 14.088 62.3316 13.224 61.1556 13.224C59.9316 13.224 59.0676 14.088 59.0676 15.192C59.0676 16.296 59.9316 17.16 61.1556 17.16C62.3316 17.16 63.1956 16.296 63.1956 15.192Z" fill="red"/>
</svg>
